<mxfile host="Electron" modified="2024-03-12T11:51:27.226Z" agent="Mozilla/5.0 (X11; Linux x86_64) AppleWebKit/537.36 (KHTML, like Gecko) draw.io/24.0.4 Chrome/120.0.6099.109 Electron/28.1.0 Safari/537.36" etag="1ObkgH6FSF6saoiIMlZP" version="24.0.4" type="device">
  <diagram name="Page-1" id="ijKU6omm411AxzlGt9A5">
    <mxGraphModel dx="399" dy="223" grid="1" gridSize="10" guides="1" tooltips="1" connect="1" arrows="1" fold="1" page="1" pageScale="1" pageWidth="850" pageHeight="1100" background="none" math="0" shadow="0">
      <root>
        <mxCell id="0" />
        <mxCell id="1" parent="0" />
        <mxCell id="vYJTW-IyGAqJvvr4b3gr-3" value="" style="rounded=0;whiteSpace=wrap;html=1;movable=0;resizable=1;rotatable=1;deletable=1;editable=1;locked=0;connectable=0;" parent="1" vertex="1">
          <mxGeometry x="210" y="40" width="190" height="200" as="geometry" />
        </mxCell>
        <mxCell id="vYJTW-IyGAqJvvr4b3gr-4" value="" style="endArrow=none;html=1;rounded=0;entryX=1.001;entryY=0.721;entryDx=0;entryDy=0;entryPerimeter=0;" parent="1" edge="1">
          <mxGeometry width="50" height="50" relative="1" as="geometry">
            <mxPoint x="400" y="150" as="sourcePoint" />
            <mxPoint x="210" y="150" as="targetPoint" />
          </mxGeometry>
        </mxCell>
        <mxCell id="jHobpagDDlLtaV7eVafY-5" style="edgeStyle=elbowEdgeStyle;rounded=0;orthogonalLoop=1;jettySize=auto;html=1;" parent="1" source="vYJTW-IyGAqJvvr4b3gr-55" edge="1">
          <mxGeometry relative="1" as="geometry">
            <mxPoint x="400" y="114" as="targetPoint" />
          </mxGeometry>
        </mxCell>
        <mxCell id="jHobpagDDlLtaV7eVafY-9" style="edgeStyle=elbowEdgeStyle;rounded=0;orthogonalLoop=1;jettySize=auto;html=1;exitX=0;exitY=0.5;exitDx=0;exitDy=0;startArrow=classic;startFill=1;endArrow=none;endFill=0;" parent="1" source="vYJTW-IyGAqJvvr4b3gr-55" edge="1">
          <mxGeometry relative="1" as="geometry">
            <mxPoint x="210" y="85" as="targetPoint" />
          </mxGeometry>
        </mxCell>
        <mxCell id="vYJTW-IyGAqJvvr4b3gr-55" value="CSR" style="rounded=0;whiteSpace=wrap;html=1;" parent="1" vertex="1">
          <mxGeometry x="265" y="160" width="80" height="30" as="geometry" />
        </mxCell>
        <mxCell id="KoD_33bqlST3TNC8V_lG-2" value="&lt;div&gt;&lt;span style=&quot;font-size: 11px;&quot;&gt;寄存器控制&lt;/span&gt;&lt;/div&gt;&lt;div&gt;&lt;span style=&quot;font-size: 11px;&quot;&gt;PC控制&lt;/span&gt;&lt;/div&gt;&lt;div style=&quot;font-size: 11px;&quot;&gt;访存控制&lt;br&gt;&lt;/div&gt;&lt;div style=&quot;font-size: 11px;&quot;&gt;op1/op2&lt;br&gt;&lt;/div&gt;&lt;div style=&quot;font-size: 11px;&quot;&gt;CSR控制&lt;br&gt;&lt;/div&gt;&lt;div style=&quot;font-size: 11px;&quot;&gt;aluOut&lt;/div&gt;" style="text;html=1;align=right;verticalAlign=middle;whiteSpace=wrap;rounded=0;" parent="1" vertex="1">
          <mxGeometry x="110" y="26" width="60" height="130" as="geometry" />
        </mxCell>
        <mxCell id="KoD_33bqlST3TNC8V_lG-6" value="&lt;div&gt;&lt;span style=&quot;font-size: 11px;&quot;&gt;寄存器控制&lt;/span&gt;&lt;/div&gt;&lt;div&gt;&lt;span style=&quot;font-size: 11px;&quot;&gt;PC控制&lt;/span&gt;&lt;/div&gt;&lt;div&gt;&lt;span style=&quot;font-size: 11px;&quot;&gt;op1&lt;/span&gt;&lt;/div&gt;&lt;div&gt;&lt;span style=&quot;font-size: 11px;&quot;&gt;CSR跳转&lt;/span&gt;&lt;span style=&quot;font-size: 11px;&quot;&gt;&lt;br&gt;&lt;/span&gt;&lt;/div&gt;&lt;div&gt;&lt;span style=&quot;font-size: 11px;&quot;&gt;csrOut&lt;/span&gt;&lt;span style=&quot;font-size: 11px;&quot;&gt;&lt;br&gt;&lt;/span&gt;&lt;/div&gt;&lt;div&gt;&lt;span style=&quot;font-size: 11px;&quot;&gt;memOut&lt;/span&gt;&lt;/div&gt;&lt;div&gt;&lt;br&gt;&lt;/div&gt;" style="text;html=1;align=left;verticalAlign=middle;whiteSpace=wrap;rounded=0;" parent="1" vertex="1">
          <mxGeometry x="421" y="34" width="60" height="130" as="geometry" />
        </mxCell>
        <mxCell id="KoD_33bqlST3TNC8V_lG-15" value="&lt;font style=&quot;font-size: 30px;&quot;&gt;}&lt;/font&gt;" style="text;html=1;align=center;verticalAlign=middle;whiteSpace=wrap;rounded=0;" parent="1" vertex="1">
          <mxGeometry x="220" y="46" width="10" height="30" as="geometry" />
        </mxCell>
        <mxCell id="KoD_33bqlST3TNC8V_lG-16" value="&lt;font style=&quot;font-size: 36px;&quot;&gt;{&lt;/font&gt;" style="text;html=1;align=center;verticalAlign=middle;whiteSpace=wrap;rounded=0;fontSize=36;" parent="1" vertex="1">
          <mxGeometry x="380" y="50" width="15" height="30" as="geometry" />
        </mxCell>
        <mxCell id="KoD_33bqlST3TNC8V_lG-18" value="" style="endArrow=block;html=1;rounded=0;strokeWidth=3;endFill=1;" parent="1" edge="1">
          <mxGeometry width="50" height="50" relative="1" as="geometry">
            <mxPoint x="235" y="64.9" as="sourcePoint" />
            <mxPoint x="380" y="65" as="targetPoint" />
          </mxGeometry>
        </mxCell>
        <mxCell id="KoD_33bqlST3TNC8V_lG-21" value="" style="group" parent="1" vertex="1" connectable="0">
          <mxGeometry x="400" y="55" width="20" height="73.14" as="geometry" />
        </mxCell>
        <mxCell id="KoD_33bqlST3TNC8V_lG-22" value="" style="endArrow=none;html=1;rounded=0;" parent="KoD_33bqlST3TNC8V_lG-21" edge="1">
          <mxGeometry width="50" height="50" relative="1" as="geometry">
            <mxPoint as="sourcePoint" />
            <mxPoint x="20" as="targetPoint" />
          </mxGeometry>
        </mxCell>
        <mxCell id="KoD_33bqlST3TNC8V_lG-23" value="" style="endArrow=none;html=1;rounded=0;" parent="KoD_33bqlST3TNC8V_lG-21" edge="1">
          <mxGeometry width="50" height="50" relative="1" as="geometry">
            <mxPoint y="14.14" as="sourcePoint" />
            <mxPoint x="20" y="14.14" as="targetPoint" />
          </mxGeometry>
        </mxCell>
        <mxCell id="KoD_33bqlST3TNC8V_lG-24" value="" style="endArrow=none;html=1;rounded=0;" parent="KoD_33bqlST3TNC8V_lG-21" edge="1">
          <mxGeometry width="50" height="50" relative="1" as="geometry">
            <mxPoint y="29.14" as="sourcePoint" />
            <mxPoint x="20" y="29.14" as="targetPoint" />
          </mxGeometry>
        </mxCell>
        <mxCell id="KoD_33bqlST3TNC8V_lG-25" value="" style="endArrow=none;html=1;rounded=0;" parent="KoD_33bqlST3TNC8V_lG-21" edge="1">
          <mxGeometry width="50" height="50" relative="1" as="geometry">
            <mxPoint y="45" as="sourcePoint" />
            <mxPoint x="20" y="45" as="targetPoint" />
          </mxGeometry>
        </mxCell>
        <mxCell id="KoD_33bqlST3TNC8V_lG-26" value="" style="endArrow=none;html=1;rounded=0;" parent="KoD_33bqlST3TNC8V_lG-21" edge="1">
          <mxGeometry width="50" height="50" relative="1" as="geometry">
            <mxPoint y="59.14" as="sourcePoint" />
            <mxPoint x="20" y="59.14" as="targetPoint" />
          </mxGeometry>
        </mxCell>
        <mxCell id="KoD_33bqlST3TNC8V_lG-27" value="" style="endArrow=none;html=1;rounded=0;" parent="KoD_33bqlST3TNC8V_lG-21" edge="1">
          <mxGeometry width="50" height="50" relative="1" as="geometry">
            <mxPoint y="73.14" as="sourcePoint" />
            <mxPoint x="20" y="73.14" as="targetPoint" />
          </mxGeometry>
        </mxCell>
        <mxCell id="jHobpagDDlLtaV7eVafY-7" style="edgeStyle=elbowEdgeStyle;rounded=0;orthogonalLoop=1;jettySize=auto;html=1;exitX=0;exitY=0.5;exitDx=0;exitDy=0;startArrow=classic;startFill=1;endArrow=none;endFill=0;" parent="1" source="jHobpagDDlLtaV7eVafY-1" edge="1">
          <mxGeometry relative="1" as="geometry">
            <mxPoint x="210" y="115" as="targetPoint" />
            <Array as="points">
              <mxPoint x="220" y="160" />
            </Array>
          </mxGeometry>
        </mxCell>
        <mxCell id="jHobpagDDlLtaV7eVafY-1" value="数据访存" style="rounded=0;whiteSpace=wrap;html=1;" parent="1" vertex="1">
          <mxGeometry x="265" y="198" width="80" height="30" as="geometry" />
        </mxCell>
        <mxCell id="KoD_33bqlST3TNC8V_lG-4" value="" style="endArrow=none;html=1;rounded=0;" parent="1" edge="1">
          <mxGeometry width="50" height="50" relative="1" as="geometry">
            <mxPoint x="170" y="55.86" as="sourcePoint" />
            <mxPoint x="210" y="55.86" as="targetPoint" />
          </mxGeometry>
        </mxCell>
        <mxCell id="KoD_33bqlST3TNC8V_lG-7" value="" style="endArrow=none;html=1;rounded=0;" parent="1" edge="1">
          <mxGeometry width="50" height="50" relative="1" as="geometry">
            <mxPoint x="170" y="70" as="sourcePoint" />
            <mxPoint x="210" y="70" as="targetPoint" />
          </mxGeometry>
        </mxCell>
        <mxCell id="KoD_33bqlST3TNC8V_lG-8" value="" style="endArrow=none;html=1;rounded=0;" parent="1" edge="1">
          <mxGeometry width="50" height="50" relative="1" as="geometry">
            <mxPoint x="170" y="85" as="sourcePoint" />
            <mxPoint x="210" y="85" as="targetPoint" />
          </mxGeometry>
        </mxCell>
        <mxCell id="KoD_33bqlST3TNC8V_lG-9" value="" style="endArrow=none;html=1;rounded=0;" parent="1" edge="1">
          <mxGeometry width="50" height="50" relative="1" as="geometry">
            <mxPoint x="170" y="100" as="sourcePoint" />
            <mxPoint x="210" y="100" as="targetPoint" />
          </mxGeometry>
        </mxCell>
        <mxCell id="KoD_33bqlST3TNC8V_lG-10" value="" style="endArrow=none;html=1;rounded=0;" parent="1" edge="1">
          <mxGeometry width="50" height="50" relative="1" as="geometry">
            <mxPoint x="170" y="115" as="sourcePoint" />
            <mxPoint x="210" y="115" as="targetPoint" />
          </mxGeometry>
        </mxCell>
        <mxCell id="jHobpagDDlLtaV7eVafY-3" value="" style="endArrow=classic;html=1;rounded=0;exitX=1;exitY=0.5;exitDx=0;exitDy=0;edgeStyle=elbowEdgeStyle;endFill=1;" parent="1" edge="1">
          <mxGeometry width="50" height="50" relative="1" as="geometry">
            <mxPoint x="345" y="213" as="sourcePoint" />
            <mxPoint x="400" y="128" as="targetPoint" />
            <Array as="points">
              <mxPoint x="380" y="170" />
            </Array>
          </mxGeometry>
        </mxCell>
        <mxCell id="jHobpagDDlLtaV7eVafY-8" value="" style="endArrow=none;html=1;rounded=0;endFill=0;startArrow=blockThin;startFill=1;" parent="1" edge="1">
          <mxGeometry width="50" height="50" relative="1" as="geometry">
            <mxPoint x="220" y="115" as="sourcePoint" />
            <mxPoint x="210" y="100" as="targetPoint" />
            <Array as="points">
              <mxPoint x="220" y="100" />
            </Array>
          </mxGeometry>
        </mxCell>
        <mxCell id="jHobpagDDlLtaV7eVafY-10" value="" style="endArrow=none;html=1;rounded=0;" parent="1" source="jHobpagDDlLtaV7eVafY-11" edge="1">
          <mxGeometry width="50" height="50" relative="1" as="geometry">
            <mxPoint x="220" y="100" as="sourcePoint" />
            <mxPoint x="238" y="100" as="targetPoint" />
          </mxGeometry>
        </mxCell>
        <mxCell id="jHobpagDDlLtaV7eVafY-13" value="" style="endArrow=none;html=1;rounded=0;" parent="1" target="jHobpagDDlLtaV7eVafY-11" edge="1">
          <mxGeometry width="50" height="50" relative="1" as="geometry">
            <mxPoint x="220" y="100" as="sourcePoint" />
            <mxPoint x="238" y="100" as="targetPoint" />
          </mxGeometry>
        </mxCell>
        <mxCell id="jHobpagDDlLtaV7eVafY-11" value="" style="ellipse;whiteSpace=wrap;html=1;aspect=fixed;fillColor=#000000;" parent="1" vertex="1">
          <mxGeometry x="219" y="99" width="2" height="2" as="geometry" />
        </mxCell>
        <mxCell id="jHobpagDDlLtaV7eVafY-14" value="" style="ellipse;whiteSpace=wrap;html=1;aspect=fixed;fillColor=#000000;" parent="1" vertex="1">
          <mxGeometry x="219" y="114" width="2" height="2" as="geometry" />
        </mxCell>
        <mxCell id="jHobpagDDlLtaV7eVafY-16" value="" style="ellipse;whiteSpace=wrap;html=1;aspect=fixed;fillColor=#000000;" parent="1" vertex="1">
          <mxGeometry x="236.5" y="99" width="2" height="2" as="geometry" />
        </mxCell>
        <mxCell id="jHobpagDDlLtaV7eVafY-17" value="" style="shape=flexArrow;endArrow=classic;startArrow=block;html=1;rounded=0;entryX=0.5;entryY=1;entryDx=0;entryDy=0;fillColor=#000000;elbow=vertical;strokeWidth=0;targetPerimeterSpacing=0;startFill=0;startSize=4;endSize=4;" parent="1" edge="1">
          <mxGeometry width="100" height="100" relative="1" as="geometry">
            <mxPoint x="304.88" y="266" as="sourcePoint" />
            <mxPoint x="304.88" y="228" as="targetPoint" />
          </mxGeometry>
        </mxCell>
        <mxCell id="jHobpagDDlLtaV7eVafY-18" value="AXI主机仲裁器_P1" style="rounded=0;whiteSpace=wrap;html=1;shadow=1;" parent="1" vertex="1">
          <mxGeometry x="245" y="268" width="120" height="37" as="geometry" />
        </mxCell>
        <mxCell id="jHobpagDDlLtaV7eVafY-19" value="" style="endArrow=classic;html=1;rounded=0;edgeStyle=elbowEdgeStyle;elbow=vertical;endFill=1;" parent="1" edge="1">
          <mxGeometry width="50" height="50" relative="1" as="geometry">
            <mxPoint x="372.4" y="114" as="sourcePoint" />
            <mxPoint x="401" y="100" as="targetPoint" />
            <Array as="points">
              <mxPoint x="391" y="100" />
            </Array>
          </mxGeometry>
        </mxCell>
        <mxCell id="jHobpagDDlLtaV7eVafY-20" value="&lt;div&gt;R/V&lt;/div&gt;&lt;div&gt;生成器&lt;/div&gt;" style="shape=stencil(tZTBbsMgDIafhuuUwqL1OrHtPRhxGtQEIqBr+/ZzQtKVFDppS6Uc8O/4s2VjCOOuET0QWmjRAWFvhFLZmp2SDE8oN0Eri2AeY1O4HqQPWq1OUAXZeWv2cFSVn8KVbsAqP3jZOyle8Z/hY1warZGgjHaR58qPMKE0xhanAJtynyfriQa7xwwdeLBB34zqx5+p5UOo21Wom4d0YEldpwNL6joduFR3jvq8oBYJKuOo5K4d459C7nfWHHSVrMUO1z033eSKxAuUqCWTkfHaWLhTSq3aNixarnHrFjtTezFs9Y1jdnfmC36SUroY1B30TGiVvia8/JsQxz+Xv8bjC+iyXUU90wJ8TJPzGGNupjmq4fUdhW8=);whiteSpace=wrap;html=1;fillColor=#f5f5f5;strokeColor=#666666;gradientColor=none;rotation=0;shadow=1;strokeWidth=2;align=center;verticalAlign=middle;fontFamily=Helvetica;fontSize=12;fontColor=default;" parent="1" vertex="1">
          <mxGeometry x="280" y="80" width="50" height="50" as="geometry" />
        </mxCell>
        <mxCell id="jHobpagDDlLtaV7eVafY-21" value="" style="endArrow=block;html=1;rounded=0;strokeWidth=2;endFill=1;" parent="1" edge="1">
          <mxGeometry width="50" height="50" relative="1" as="geometry">
            <mxPoint x="242.5" y="104.9" as="sourcePoint" />
            <mxPoint x="277.5" y="105" as="targetPoint" />
          </mxGeometry>
        </mxCell>
        <mxCell id="jHobpagDDlLtaV7eVafY-22" value="" style="endArrow=block;html=1;rounded=0;strokeWidth=2;endFill=1;" parent="1" edge="1">
          <mxGeometry width="50" height="50" relative="1" as="geometry">
            <mxPoint x="335" y="104.9" as="sourcePoint" />
            <mxPoint x="370" y="105" as="targetPoint" />
          </mxGeometry>
        </mxCell>
        <mxCell id="S1cf7kha7homGeD01KqE-1" value="" style="endArrow=none;html=1;rounded=0;" edge="1" parent="1">
          <mxGeometry width="50" height="50" relative="1" as="geometry">
            <mxPoint x="170" y="127" as="sourcePoint" />
            <mxPoint x="220" y="127" as="targetPoint" />
          </mxGeometry>
        </mxCell>
        <mxCell id="S1cf7kha7homGeD01KqE-2" value="" style="ellipse;whiteSpace=wrap;html=1;aspect=fixed;fillColor=#000000;" vertex="1" parent="1">
          <mxGeometry x="219" y="126" width="2" height="2" as="geometry" />
        </mxCell>
      </root>
    </mxGraphModel>
  </diagram>
</mxfile>
